<?xml version="1.0" encoding="utf-8"?>
<!-- Generator: Adobe Illustrator 16.0.4, SVG Export Plug-In . SVG Version: 6.00 Build 0)  -->
<!DOCTYPE svg PUBLIC "-//W3C//DTD SVG 1.1//EN" "http://www.w3.org/Graphics/SVG/1.1/DTD/svg11.dtd">
<svg version="1.1" id="Layer_1" xmlns="http://www.w3.org/2000/svg" xmlns:xlink="http://www.w3.org/1999/xlink" x="0px" y="0px"
	 width="316.08px" height="297.36px" viewBox="4.295 2.454 316.08 297.36" enable-background="new 4.295 2.454 316.08 297.36"
	 xml:space="preserve">
<g id="PNG">
	<g id="fN9PwG_1_" display="none">
		
			<image display="inline" overflow="visible" enable-background="new    " width="275" height="233" id="fN9PwG_2_" xlink:href="710E4B1B498EB096.jpg"  transform="matrix(0.2382 0 0 0.2382 363.2471 278.249)">
		</image>
	</g>
</g>
<g id="Layer_1_1_">
	<g id="Blue">
		<path fill="none" stroke="#282973" stroke-width="5.8898" stroke-miterlimit="10" d="M292.459,150.603
			c0,74.379-60.297,134.68-134.681,134.68c-74.386,0-134.682-60.301-134.682-134.68c0-74.387,60.296-134.686,134.682-134.686
			C232.162,15.917,292.459,76.216,292.459,150.603z"/>
		<path fill="none" stroke="#282973" stroke-width="3.7576" stroke-miterlimit="10" d="M243.71,150.603
			c0,47.451-38.475,85.926-85.932,85.926c-47.454,0-85.923-38.475-85.923-85.926c0-47.457,38.469-85.927,85.923-85.927
			C205.235,64.676,243.71,103.146,243.71,150.603z"/>
		<polygon fill="none" stroke="#282973" stroke-width="4.9494" points="290.854,287.104 23.081,287.104 156.969,19.866 		"/>
		<polygon fill="none" stroke="#282973" stroke-width="4.9354" points="290.854,15.917 23.081,15.917 156.972,281.643 		"/>
		<polygon fill="none" stroke="#282973" stroke-width="4.9215" points="22.287,284.485 22.287,16.714 286.517,150.603 		"/>
		<polygon fill="none" stroke="#282973" stroke-width="4.9412" points="293.746,284.485 293.746,18.267 25.847,151.377 		"/>
		<path fill="#FFFFFF" stroke="#282973" stroke-width="5.0705" d="M109.106,57.484c0,23.973-19.436,43.408-43.411,43.408l0,0
			c-23.974,0-43.409-19.436-43.409-43.408l0,0c0-23.977,19.435-43.409,43.409-43.409l0,0
			C89.671,14.075,109.106,33.508,109.106,57.484L109.106,57.484z"/>
		<path fill="#FFFFFF" stroke="#282973" stroke-width="5.0705" d="M292.459,57.486c0,23.971-19.431,43.406-43.406,43.406l0,0
			c-23.977,0-43.411-19.436-43.411-43.406l0,0c0-23.979,19.435-43.411,43.411-43.411l0,0
			C273.028,14.075,292.459,33.508,292.459,57.486L292.459,57.486z"/>
		<path fill="#FFFFFF" stroke="#282973" stroke-width="5.0705" d="M107.463,243.698c0,23.976-19.438,43.405-43.414,43.405l0,0
			c-23.974,0-43.409-19.431-43.409-43.405l0,0c0-23.976,19.435-43.406,43.409-43.406l0,0
			C88.024,200.292,107.463,219.723,107.463,243.698L107.463,243.698z"/>
		<path fill="#FFFFFF" stroke="#282973" stroke-width="5.0705" d="M293.746,243.698c0,23.976-19.44,43.405-43.416,43.405l0,0
			c-23.971,0-43.406-19.431-43.406-43.405l0,0c0-23.976,19.436-43.406,43.406-43.406l0,0
			C274.306,200.292,293.746,219.723,293.746,243.698L293.746,243.698z"/>
		<text transform="matrix(1 0 0 1 46.2812 266.0938)" fill="#282973" font-family="'Times-Bold'" font-size="63.5121">P</text>
		
			<text transform="matrix(1 0 0 1 46.2812 266.0938)" fill="none" stroke="#282973" font-family="'Times-Bold'" font-size="63.5121">P</text>
		<text transform="matrix(1 0 0 1 41.6992 76.9688)" fill="#282973" font-family="'Times-Bold'" font-size="63.5121">N</text>
		<text transform="matrix(1 0 0 1 41.6992 76.9688)" fill="none" stroke="#282973" font-family="'Times-Bold'" font-size="63.5121">N</text>
		<text transform="matrix(1 0 0 1 236.5781 76.9688)" fill="#282973" font-family="'Times-Bold'" font-size="63.5121">I</text>
		
			<text transform="matrix(1 0 0 1 236.5781 76.9688)" fill="none" stroke="#282973" font-family="'Times-Bold'" font-size="63.5121">I</text>
		<text transform="matrix(1 0 0 1 233.4883 266.0938)" fill="#282973" font-family="'Times-Bold'" font-size="63.5121">S</text>
		
			<text transform="matrix(1 0 0 1 233.4883 266.0938)" fill="none" stroke="#282973" font-family="'Times-Bold'" font-size="63.5121">S</text>
		<text transform="matrix(1 0 0 1 300 19.8662)" fill="#282973" font-family="'Times-Bold'" font-size="12">TM</text>
		<rect x="19.831" y="14.075" fill="none" stroke="#282973" stroke-width="4.9818" width="273.916" height="273.028"/>
	</g>
</g>
</svg>
